<?xml version="1.0" encoding="UTF-8"?>
<svg width="1200pt" height="1200pt" version="1.1" viewBox="0 0 1200 1200" xmlns="http://www.w3.org/2000/svg">
 <g fill="#63e8ec">
  <path d="m755.25 136h-441c-24.652 0.039062-48.285 9.8516-65.719 27.281-17.43 17.434-27.242 41.066-27.281 65.719v742c-0.054688 24.68 9.7266 48.367 27.18 65.82 17.453 17.453 41.141 27.234 65.82 27.18h571.5c24.68 0.054688 48.367-9.7266 65.82-27.18 17.453-17.453 27.234-41.141 27.18-65.82v-573zm130.5 885h-571.5c-13.262 0-25.98-5.2695-35.355-14.645s-14.645-22.094-14.645-35.355v-742c0-13.262 5.2695-25.98 14.645-35.355s22.094-14.645 35.355-14.645h421l175.5 205h-135c-13.262 0-25.98-5.2695-35.355-14.645s-14.645-22.094-14.645-35.355v-105h-43v105c0.027344 24.711 9.8555 48.402 27.328 65.875s41.16 27.297 65.871 27.324h160v543.8c0 13.297-5.293 26.043-14.715 35.426-9.418 9.3828-22.188 14.629-35.484 14.574z"/>
  <path d="m820 528.5h-439.75c-19.016 0.10547-37.219 7.7422-50.617 21.234-13.402 13.496-20.91 31.75-20.883 50.766v247.5c0 18.965 7.5312 37.148 20.941 50.559s31.594 20.941 50.559 20.941h439.75c18.965 0 37.148-7.5312 50.559-20.941s20.941-31.594 20.941-50.559v-247.5c0.027344-19.016-7.4805-37.27-20.883-50.766-13.398-13.492-31.602-21.129-50.617-21.234zm-329 165.5h-38.5v-52c0-7.3242-3.9062-14.09-10.25-17.754-6.3438-3.6602-14.156-3.6602-20.5 0-6.3438 3.6641-10.25 10.43-10.25 17.754v164.5c0 7.3242 3.9062 14.09 10.25 17.754 6.3438 3.6602 14.156 3.6602 20.5 0 6.3438-3.6641 10.25-10.43 10.25-17.754v-56h38.5v56c0.58203 15.516-5.5742 30.523-16.883 41.16-11.309 10.641-26.668 15.867-42.117 14.34-15.449 1.5273-30.809-3.6992-42.117-14.34-11.309-10.637-17.465-25.645-16.883-41.16v-165c-0.38281-15.414 5.8516-30.254 17.129-40.77 11.281-10.516 26.52-15.695 41.871-14.23 15.352-1.4648 30.59 3.7148 41.871 14.23 11.277 10.516 17.512 25.355 17.129 40.77zm169.5 45h-48.5v50h-36.5v-50h-48.5v-33.5h48.5v-50h36.5v50h48.5zm167 0h-48.5v50h-36.5v-50h-48.5v-33.5h48.5v-50h36.5v50h48.5z"/>
 </g>
</svg>
