<?xml version="1.0" encoding="UTF-8"?>
<svg width="1200pt" height="1200pt" version="1.1" viewBox="0 0 1200 1200" xmlns="http://www.w3.org/2000/svg">
 <g fill="#63e8ec">
  <path d="m461.25 855 22.5 41.25s-3.75 0-3.75 3.75-7.5 3.75-15 7.5l-22.5 11.25c-7.5 3.75-18.75 3.75-30 7.5s-22.5 3.75-33.75 3.75c-37.5 0-71.25-11.25-93.75-37.5-26.25-26.25-37.5-56.25-37.5-97.5s11.25-71.25 37.5-97.5 56.25-37.5 93.75-37.5c15 0 30 3.75 45 7.5s22.5 11.25 33.75 18.75l18.75 18.75c3.75 7.5 7.5 11.25 11.25 15l-45 22.5c0-3.75-3.75-7.5-7.5-11.25l-11.25-11.25c-3.75-3.75-11.25-7.5-18.75-11.25s-15-3.75-22.5-3.75c-22.5 0-41.25 7.5-56.25 26.25s-22.5 37.5-22.5 67.5c0 26.25 7.5 48.75 22.5 67.5 15 15 33.75 26.25 60 26.25 11.25 0 26.25-3.75 37.5-7.5 15-3.75 22.5-11.25 30-15z"/>
  <path d="m716.25 843.75c0 22.5-11.25 41.25-30 56.25s-45 26.25-75 26.25c-11.25 0-18.75 0-30-3.75s-18.75-3.75-26.25-7.5-15-3.75-18.75-7.5c-7.5-3.75-11.25-3.75-15-7.5h-3.75l18.75-41.25c3.75 0 7.5 3.75 11.25 7.5s15 7.5 26.25 11.25 22.5 7.5 33.75 7.5c15 0 30-3.75 37.5-11.25 11.25-7.5 15-15 15-26.25 0-7.5-3.75-15-11.25-18.75s-15-7.5-26.25-11.25-22.5-3.75-33.75-7.5-22.5-7.5-33.75-11.25-18.75-11.25-26.25-22.5-11.25-22.5-11.25-37.5c0-22.5 11.25-41.25 30-56.25s41.25-22.5 71.25-22.5c15 0 30 0 45 3.75s26.25 7.5 33.75 11.25l11.25 3.75-22.5 41.25c-18.75-11.25-41.25-18.75-63.75-18.75-11.25 0-22.5 3.75-33.75 7.5-7.5 3.75-15 11.25-15 22.5 0 7.5 3.75 15 11.25 18.75s15 7.5 26.25 11.25 22.5 3.75 33.75 7.5 22.5 7.5 33.75 11.25 18.75 11.25 26.25 22.5 11.25 26.25 11.25 41.25z"/>
  <path d="m952.5 843.75c0 22.5-11.25 41.25-30 56.25s-45 26.25-75 26.25c-11.25 0-18.75 0-30-3.75s-18.75-3.75-26.25-7.5-15-3.75-18.75-7.5c-7.5-3.75-11.25-3.75-15-7.5l18.75-41.25c3.75 0 7.5 3.75 11.25 7.5s15 7.5 26.25 11.25 22.5 7.5 33.75 7.5c15 0 30-3.75 37.5-11.25 11.25-7.5 15-15 15-26.25 0-7.5-3.75-15-11.25-18.75s-15-7.5-26.25-11.25-22.5-3.75-33.75-7.5-22.5-7.5-33.75-11.25-18.75-11.25-26.25-22.5-11.25-22.5-11.25-37.5c0-22.5 11.25-41.25 30-56.25s41.25-22.5 71.25-22.5c15 0 30 0 45 3.75s26.25 7.5 33.75 11.25l11.25 3.75-22.5 41.25c-18.75-11.25-41.25-18.75-63.75-18.75-11.25 0-22.5 3.75-33.75 7.5-7.5 3.75-15 11.25-15 22.5 0 7.5 3.75 15 11.25 18.75s15 7.5 26.25 11.25 22.5 3.75 33.75 7.5 22.5 7.5 33.75 11.25 18.75 11.25 26.25 22.5 7.5 26.25 7.5 41.25z"/>
  <path d="m975 630h-750c-11.25 0-18.75-7.5-18.75-18.75v-536.25c0-11.25 7.5-18.75 18.75-18.75h450c3.75 0 11.25 3.75 15 3.75l300 303.75c3.75 3.75 3.75 7.5 3.75 15v232.5c0 7.5-7.5 18.75-18.75 18.75zm-731.25-37.5h712.5v-206.25l-288.75-292.5h-423.75z"/>
  <path d="m975 1143.8h-750c-11.25 0-18.75-7.5-18.75-18.75v-150c0-11.25 7.5-18.75 18.75-18.75h750c11.25 0 18.75 7.5 18.75 18.75v150c0 11.25-7.5 18.75-18.75 18.75zm-731.25-37.5h712.5v-112.5h-712.5z"/>
  <path d="m975 397.5h-300c-11.25 0-18.75-7.5-18.75-18.75v-303.75c0-7.5 3.75-15 11.25-18.75s15 0 18.75 3.75l296.25 300c3.75 3.75 7.5 7.5 7.5 15 3.75 15-3.75 22.5-15 22.5zm-281.25-37.5h236.25l-236.25-240z"/>
  <path d="m1125 993.75h-1050c-11.25 0-18.75-7.5-18.75-18.75v-367.5c0-11.25 7.5-18.75 18.75-18.75h1050c11.25 0 18.75 7.5 18.75 18.75v367.5c0 11.25-7.5 18.75-18.75 18.75zm-1031.2-37.5h1012.5v-330h-1012.5z"/>
 </g>
</svg>
