<?xml version="1.0" encoding="UTF-8"?>
<svg width="1200pt" height="1200pt" version="1.1" viewBox="0 0 1200 1200" xmlns="http://www.w3.org/2000/svg">
 <g fill="#63e8ec">
  <path d="m323.14 801.82h-86.551v-75.262h-35.023v184.57h35.023v-79.801h86.551v79.801h35.027v-184.57h-35.027z"/>
  <path d="m375.86 757.91h53.285v153.22h35.027v-153.22h55.199v-31.352h-143.51z"/>
  <path d="m662.14 812.29c-2.3984 6.2266-5.2891 14.699-8.625 25.426l-4.0117 12.711-3.9375 12.711h-1.2383l-4.1641-12.711-4.0117-12.863c-3.75-11.102-6.6758-19.574-8.9258-25.574l-33-85.426h-57.074v184.57h35.023v-100.61c0-7.5-0.26172-16.461-0.78906-26.926l-0.67578-13.5-0.67578-13.387h1.0859l4.1992 12.711 4.1992 12.863c3.7109 11.363 6.6758 19.875 8.9258 25.574l41.023 103.31h31.875l40.574-104.1c2.0625-5.4766 4.9883-14.023 8.7734-25.574l4.0859-12.863 4.1641-12.863h1.0859l-0.75 13.648-0.67578 13.801c-0.44922 10.164-0.67578 19.312-0.67578 27.336v100.61h35.023v-184.57h-58.312z"/>
  <path d="m820.39 726.56h-35.062v184.57h121.61v-31.387h-86.551z"/>
  <path d="m190.5 991.16v208.84h906.19v-949.16l-250.84-250.84h-655.35v649.24h-87.188v341.93l87.148 87.148v-87.148zm674.06-900.64 141.6 141.56h-141.6zm-636.56-53.023h599.02v232.09h232.12v892.91h-831.15v-171.34h778.8v-341.93h-778.8zm-87.188 649.24h828.49v266.93h-828.49z"/>
 </g>
</svg>
