<?xml version="1.0" encoding="UTF-8"?>
<svg width="1200pt" height="1200pt" version="1.1" viewBox="0 0 1200 1200" xmlns="http://www.w3.org/2000/svg">
 <g fill="#63e8ec">
  <path d="m626.25 750v45c0 15-5.625 28.125-16.875 39.375l-28.125 28.125 28.125 30c11.25 9.375 16.875 24.375 16.875 39.375v43.125c0 41.25 33.75 75 75 75h30v-37.5h-30c-20.625 0-37.5-16.875-37.5-37.5v-45c0-24.375-11.25-48.75-28.125-65.625l-1.875-1.875 1.875-3.75c18.75-16.875 28.125-41.25 28.125-65.625v-43.125c0-20.625 16.875-37.5 37.5-37.5h30v-37.5h-30c-41.25 0-75 33.75-75 75z"/>
  <path d="m911.25 793.12v-43.125c0-41.25-33.75-75-75-75h-30v37.5h30c20.625 0 37.5 16.875 37.5 37.5v46.875c0 24.375 11.25 48.75 28.125 65.625l1.875 1.875-1.875 1.875c-18.75 16.875-28.125 41.25-28.125 65.625v43.125c0 20.625-16.875 37.5-37.5 37.5h-30v37.5h30c41.25 0 75-33.75 75-75v-45c0-15 5.625-28.125 16.875-39.375l28.125-28.125-28.125-30c-11.25-9.375-16.875-24.375-16.875-39.375z"/>
  <path d="m890.62 37.5h-684.38v225h-75v337.5h75v562.5h862.5v-886.88zm9.375 75 112.5 150h-112.5zm-731.25 187.5h431.25v262.5h-431.25zm75 825v-525h393.75v-337.5h-393.75v-187.5h618.75v225h168.75v825z"/>
  <path d="m318.75 468.75c0 11.25-7.5 18.75-18.75 18.75s-18.75-7.5-18.75-18.75v-18.75h-37.5v18.75c0 31.875 24.375 56.25 56.25 56.25s56.25-24.375 56.25-56.25v-131.25h-37.5z"/>
  <path d="m450 375h18.75c11.25 0 18.75 7.5 18.75 18.75h37.5c0-31.875-24.375-56.25-56.25-56.25h-18.75c-31.875 0-56.25 24.375-56.25 56.25s24.375 56.25 56.25 56.25h18.75c11.25 0 18.75 7.5 18.75 18.75s-7.5 18.75-18.75 18.75h-18.75c-11.25 0-18.75-7.5-18.75-18.75h-37.5c0 31.875 24.375 56.25 56.25 56.25h18.75c31.875 0 56.25-24.375 56.25-56.25s-24.375-56.25-56.25-56.25h-18.75c-11.25 0-18.75-7.5-18.75-18.75s7.5-18.75 18.75-18.75z"/>
 </g>
</svg>
