<?xml version="1.0" encoding="UTF-8"?>
<svg width="1200pt" height="1200pt" version="1.1" viewBox="0 0 1200 1200" xmlns="http://www.w3.org/2000/svg">
 <g fill="#63e8ec">
  <path d="m506.25 892.5h28.875l-14.625-41.625z"/>
  <path d="m753.38 892.5h28.5l-14.25-41.625z"/>
  <path d="m750 93.75h-463.12c-12.828 0-25.133 5.0977-34.207 14.168-9.0703 9.0742-14.168 21.379-14.168 34.207v915.75c0 12.828 5.0977 25.133 14.168 34.207 9.0742 9.0703 21.379 14.168 34.207 14.168h626.25c12.828 0 25.133-5.0977 34.207-14.168 9.0703-9.0742 14.168-21.379 14.168-34.207v-754.12c-0.066406-37.012-9.8945-73.355-28.496-105.36-18.602-32-45.316-58.523-77.449-76.898-32.133-18.375-68.543-27.945-105.55-27.746zm-349.88 150h398.62c6.6992 0 12.887 3.5742 16.238 9.375 3.3477 5.8008 3.3477 12.949 0 18.75-3.3516 5.8008-9.5391 9.375-16.238 9.375h-397.5c-6.6992 0-12.887-3.5742-16.238-9.375-3.3477-5.8008-3.3477-12.949 0-18.75 3.3516-5.8008 9.5391-9.375 16.238-9.375zm416.25 187.5c0 4.9727-1.9766 9.7422-5.4922 13.258-3.5156 3.5156-8.2852 5.4922-13.258 5.4922h-396.38c-6.6992 0-12.887-3.5742-16.238-9.375-3.3477-5.8008-3.3477-12.949 0-18.75 3.3516-5.8008 9.5391-9.375 16.238-9.375h397.5c4.9727 0 9.7422 1.9766 13.258 5.4922 3.5156 3.5156 5.4922 8.2852 5.4922 13.258zm-416.62 150h399c6.6992 0 12.887 3.5742 16.238 9.375 3.3477 5.8008 3.3477 12.949 0 18.75-3.3516 5.8008-9.5391 9.375-16.238 9.375h-397.88c-6.6992 0-12.887-3.5742-16.238-9.375-3.3477-5.8008-3.3477-12.949 0-18.75 3.3516-5.8008 9.5391-9.375 16.238-9.375zm44.625 322.12c-0.058594 4.9023-1.0781 9.7422-3 14.25-1.7305 4.3008-4.4258 8.1484-7.875 11.25-4.0781 3.4883-8.7891 6.1602-13.875 7.875-6.4727 1.7891-13.16 2.6719-19.875 2.625h-15.375l-9.375-1.875v-23.625l7.875 2.625c3.4844 0.45312 7.0156 0.45312 10.5 0 4.3672 0.22656 8.7266-0.54297 12.75-2.25 2.6094-1.2812 4.7188-3.3906 6-6 1.3594-2.6797 2.125-5.6211 2.25-8.625v-11.625-45.75h-27v-21.375h57zm105 34.125-8.25-23.625h-42l-8.25 23.625h-30.375l43.125-116.62h34.875l42.75 116.62zm112.5 0h-33.75l-43.125-116.62h31.875l28.125 81.75 30-81.75h30.75zm135.75 0-7.875-23.625h-43.5l-8.25 23.625h-30.375l42.375-116.62h34.5l43.875 116.62z"/>
 </g>
</svg>
