<?xml version="1.0" encoding="UTF-8"?>
<svg width="1200pt" height="1200pt" version="1.1" viewBox="0 0 1200 1200" xmlns="http://www.w3.org/2000/svg">
 <g fill="#63e8ec">
  <path d="m694.48 292.99c-15.195 0-25.789 10.988-34.48 23.5-8.6914 12.512-16.426 28.363-24.516 45.156-16.18 33.59-34.281 70.773-54.754 87.5-9.1836 7.5039-22.133 11.621-36.855 15.82s-31.16 8.4531-45.48 19.352c-12.312 9.3711-23.992 24.512-33.559 37.73-8.3594 11.551-12.977 19.043-14.461 21.402l-174.2 81.273v-0.003906c-3.6719 1.7227-6.207 5.2109-6.707 9.2344-0.5 4.0273 1.1016 8.0312 4.2422 10.602l129.89 106.27-0.003907-0.003906c2.8203 2.3086 6.5469 3.1875 10.102 2.3789 0 0 7.7266-1.75 16.953-2.6289 9.2266-0.875 20.043 0.40234 21.887 1.4297 21.195 11.844 45.387 48.699 62.062 82.633s26.984 64.344 26.984 64.344c1.2344 3.6484 4.168 6.4688 7.8672 7.5508 3.6953 1.0859 7.6914 0.29688 10.699-2.1094 0 0 78.723-62.977 118.09-94.465 21.496-17.195 38.543-40.707 56.137-59.363s34.539-31.656 55.074-32.543c21.43-0.93359 53.059 19.969 77.609 43.105 24.547 23.137 42.344 46.68 42.344 46.68h-0.003906c3.6406 4.8086 10.32 6.0977 15.492 2.9961 5.1719-3.1055 7.1758-9.6055 4.6445-15.082 0 0-47.523-102.23-70.805-153.41-25.312-55.641-51.965-141.28-78.117-213.07-13.078-35.898-25.992-68.344-39.117-92.598-6.5625-12.125-13.133-22.227-20.41-29.938-7.2773-7.707-15.949-13.746-26.613-13.746zm0 23.617c1.1406 0 4.5117 1.1094 9.457 6.3438 4.9453 5.2344 10.793 13.871 16.789 24.953 11.992 22.16 24.785 53.961 37.707 89.438 25.844 70.953 52.324 156.56 78.809 214.78 13.309 29.258 24.609 53.457 40.336 87.406-25.367-23.199-56.129-46.496-89.141-45.062-29.824 1.2852-52.227 19.781-71.242 39.945-19.016 20.164-35.848 42.812-53.715 57.102-35.297 28.234-92.43 73.945-105.88 84.711-3.5898-9.9883-8.2969-24.539-21.793-52.008-17.445-35.492-40.473-75.363-71.727-92.828-11.902-6.6484-24.699-5.3789-35.656-4.3359-7.6289 0.73047-10.547 1.5117-13.906 2.1914l-111.3-91.074 160.11-74.699v-0.003906c2.0742-0.97266 3.8203-2.5273 5.0273-4.4727 0 0 6.6016-10.621 15.637-23.109 9.0352-12.484 20.969-26.879 28.715-32.773 9.5352-7.2539 22.82-11.219 37.664-15.453 14.84-4.2344 31.289-8.7617 45.32-20.227 27.723-22.652 45.043-62.203 61.094-95.523 8.0273-16.66 15.598-31.809 22.625-41.93 7.0273-10.117 12.566-13.375 15.082-13.375z"/>
  <path d="m465.99 543.8-15.359 17.918 82.66 70.848 15.359-17.918z"/>
  <path d="m683.15 301.43s-18.449 61.957-46.703 132.45c-28.254 70.492-67.594 149.7-103.25 180.84-20.559 17.953-44.102 47.672-63.172 73.316-19.07 25.641-33.352 47.117-33.352 47.117l19.648 13.078s13.984-20.992 32.656-46.102c18.672-25.109 42.352-54.426 59.758-69.625 43.512-37.996 80.934-118.2 109.64-189.83 28.711-71.633 47.418-134.5 47.418-134.5z"/>
 </g>
</svg>
