<?xml version="1.0" encoding="UTF-8"?>
<svg width="1200pt" height="1200pt" version="1.1" viewBox="0 0 1200 1200" xmlns="http://www.w3.org/2000/svg">
 <path d="m462.32 305.27c-10.809 0.066406-21.141 2.4961-30.465 7.793-18.652 10.598-29.281 30.523-33.535 53.844-4.2539 23.32-2.6992 51.086 3.0703 82.184 2.5977 14.004 6.2305 28.922 10.629 44.164-14.652 3.7461-28.73 7.6953-41.566 12.281-29.867 10.664-54.602 23.414-72.738 38.73-18.133 15.312-30.227 34.363-30.227 55.73 0 21.371 12.094 40.188 30.227 55.5 18.137 15.312 42.871 28.062 72.738 38.73 12.836 4.582 26.914 8.7539 41.566 12.516-4.4297 15.34-8.0195 30.09-10.629 44.164-5.7695 31.094-7.3242 58.625-3.0703 81.945 4.2539 23.32 14.883 43.484 33.535 54.082 18.652 10.594 41.219 9.4141 63.762 1.418 22.547-7.9961 46.391-22.773 70.852-43.219 11.059-9.2461 22.277-19.734 33.531-31.172 11.258 11.438 22.477 21.926 33.535 31.172 24.461 20.445 48.305 35.223 70.848 43.219 22.547 7.9961 45.113 9.1758 63.766-1.418 18.652-10.598 29.281-30.762 33.535-54.082 4.2539-23.32 2.6992-50.852-3.0703-81.945-2.6094-14.074-6.1992-28.824-10.629-44.164 14.652-3.7617 28.73-7.9336 41.566-12.516 29.863-10.668 54.602-23.418 72.738-38.73 18.133-15.312 30.227-34.129 30.227-55.5 0-21.367-12.094-40.418-30.227-55.73-18.137-15.316-42.875-28.066-72.738-38.73-12.836-4.5859-26.914-8.5352-41.566-12.281 4.3984-15.242 8.0312-30.16 10.629-44.164 5.7695-31.098 7.3242-58.863 3.0703-82.184-4.2539-23.32-14.883-43.246-33.535-53.844-9.3281-5.2969-19.66-7.7266-30.465-7.793-10.809-0.066407-22.027 2.1406-33.301 6.1406-22.543 7.9961-46.387 23.008-70.848 43.453-11.051 9.2383-22.285 19.762-33.535 31.172-11.246-11.41-22.48-21.934-33.531-31.172-24.461-20.445-48.305-35.457-70.852-43.453-11.27-4-22.492-6.207-33.297-6.1406zm0.70703 29.992c6.4141 0.007813 13.926 1.6211 22.672 4.7227 17.492 6.2031 38.57 19.137 61.168 38.023 10.527 8.8008 21.379 19.031 32.352 30.227-17.609 19.801-35.16 42.152-52.191 66.363-30.238 2.4766-58.996 6.4844-85.488 11.809-4.4297-15.066-8.1289-29.512-10.629-42.984-5.3164-28.664-6.0977-53.184-2.832-71.082s9.8672-28.07 18.656-33.062c4.3945-2.4961 9.8828-4.0273 16.293-4.0156zm273.95 0c6.4102-0.007813 11.898 1.5195 16.293 4.0156 8.7891 4.9922 15.391 15.164 18.656 33.062s2.4844 42.418-2.832 71.082c-2.5 13.473-6.1992 27.918-10.629 42.984-26.496-5.3242-55.25-9.332-85.488-11.809-17.031-24.211-34.586-46.562-52.191-66.363 10.973-11.195 21.824-21.426 32.352-30.227 22.598-18.887 43.676-31.82 61.168-38.023 8.7461-3.1016 16.258-4.7148 22.672-4.7227zm-136.98 95.645c11.266 12.781 22.598 26.496 33.773 41.328-11.086-0.40625-22.387-0.70703-33.773-0.70703-11.383 0-22.684 0.30078-33.77 0.70703 11.176-14.832 22.508-28.547 33.77-41.328zm0 70.848c19.332 0 38.102 0.93359 56.445 2.125 10.266 15.105 20.289 30.699 29.992 47.234 9.6055 16.371 18.348 32.754 26.449 48.883-8.1016 16.133-16.844 32.277-26.449 48.652-9.793 16.688-19.859 32.707-30.23 47.938-18.266 1.1992-36.965 1.6562-56.207 1.6562s-37.938-0.45703-56.203-1.6562c-10.371-15.23-20.438-31.25-30.23-47.938-9.6055-16.375-18.348-32.52-26.449-48.652 8.1016-16.129 16.844-32.512 26.449-48.883 9.6992-16.535 19.727-32.129 29.992-47.234 18.344-1.1914 37.113-2.125 56.441-2.125zm-94.699 5.1953c-5.9922 9.3945-11.922 18.949-17.711 28.812-5.8242 9.9258-11.469 19.887-16.77 29.758-7.6172-17.168-14.355-33.879-20.07-50.066 17.199-3.332 35.469-6.3516 54.551-8.5039zm189.4 0c19.078 2.1523 37.352 5.1719 54.551 8.5039-5.7188 16.188-12.457 32.898-20.074 50.066-5.2969-9.8711-10.941-19.832-16.766-29.758-5.7891-9.8633-11.719-19.418-17.711-28.812zm-273.48 14.879c8.6523 25.059 19.25 51.387 32.121 78.168-12.867 26.809-23.473 53.082-32.121 78.172-14.566-3.6562-28.203-7.8477-40.617-12.281-27.574-9.8477-49.305-21.488-63.293-33.297-13.988-11.812-19.602-22.66-19.602-32.594s5.6133-20.777 19.602-32.59c13.988-11.809 35.719-23.688 63.293-33.535 12.414-4.4336 26.051-8.4062 40.617-12.043zm357.55 0c14.57 3.6367 28.207 7.6094 40.621 12.043 27.574 9.8477 49.305 21.727 63.293 33.535 13.984 11.812 19.602 22.656 19.602 32.59s-5.6172 20.781-19.602 32.594c-13.988 11.809-35.719 23.449-63.293 33.297-12.414 4.4336-26.051 8.625-40.621 12.281-8.6445-25.09-19.25-51.363-32.117-78.172 12.871-26.781 23.469-53.109 32.117-78.168zm-178.77 25.27c-29.035 0-52.898 23.863-52.898 52.898 0 29.039 23.863 52.902 52.898 52.902 29.039 0 52.902-23.863 52.902-52.902 0-29.035-23.863-52.898-52.902-52.898zm0 30.23c12.703 0 22.672 9.9688 22.672 22.668 0 12.703-9.9688 22.672-22.672 22.672-12.699 0-22.668-9.9688-22.668-22.672 0-12.699 9.9688-22.668 22.668-22.668zm-129.18 57.148c5.3008 9.8633 10.945 19.594 16.77 29.52 5.7891 9.8672 11.719 19.648 17.711 29.051-19.082-2.1797-37.352-5.1445-54.551-8.5039 5.7148-16.191 12.453-32.898 20.07-50.066zm258.36 0c7.6172 17.168 14.355 33.875 20.074 50.066-17.199 3.3594-35.473 6.3242-54.551 8.5039 5.9922-9.4023 11.922-19.184 17.711-29.051 5.8242-9.9258 11.469-19.656 16.766-29.52zm-287.88 79.113c26.559 5.3867 55.398 9.2891 85.727 11.809 17.031 24.242 34.582 46.523 52.191 66.363-10.973 11.195-21.824 21.191-32.352 29.992-22.598 18.887-43.676 32.051-61.168 38.258-17.492 6.2031-30.176 5.4609-38.965 0.47266-8.7891-4.9961-15.391-15.164-18.656-33.062-3.2656-17.902-2.4844-42.418 2.832-71.086 2.4844-13.395 6-27.777 10.391-42.746zm317.4 0c4.3906 14.969 7.9062 29.352 10.391 42.746 5.3164 28.668 6.0977 53.184 2.832 71.086-3.2656 17.898-9.8672 28.066-18.656 33.062-8.7891 4.9922-21.473 5.7344-38.965-0.47266-17.492-6.207-38.57-19.371-61.168-38.258-10.527-8.8008-21.379-18.797-32.352-29.992 17.605-19.84 35.16-42.121 52.191-66.363 30.324-2.5195 59.164-6.4219 85.727-11.809zm-192.23 14.406c11.004 0.40625 22.23 0.47266 33.531 0.47266 11.305 0 22.531-0.066406 33.535-0.47266-11.074 14.676-22.375 28.43-33.535 41.094-11.156-12.664-22.457-26.418-33.531-41.094z" fill="#63e8ec"/>
</svg>
